<svg xmlns="http://www.w3.org/2000/svg" version="1.1" xmlns:xlink="http://www.w3.org/1999/xlink" xmlns:svgjs="http://svgjs.dev/svgjs" viewBox="0 0 800 800"><defs><linearGradient x1="50%" y1="0%" x2="50%" y2="100%" id="ccchaos-grad"><stop stop-color="hsl(206, 75%, 49%)" stop-opacity="1" offset="0%"></stop><stop stop-color="hsl(331, 90%, 56%)" stop-opacity="1" offset="100%"></stop></linearGradient></defs><g stroke-width="2" stroke="url(#ccchaos-grad)" fill="none" stroke-linecap="round"><path d="M406.92 128.03C416.96 128.22 427.21 127.94 437.66 127.25 448.14 125.76 458.81 124.16 469.66 122.65 480.51 120.92 491.49 119.72 502.53 119.22 513.51 119.13 524.44 120.07 535.19 122.1 545.71 124.89 555.87 128.85 565.48 133.93 574.59 139.72 582.91 146.49 590.23 154.07 596.79 162.08 602.14 170.66 606.16 179.62 609.34 188.67 611.2 197.87 611.78 207.13 611.87 216.18 611.09 225.14 609.71 233.99 608.72 242.48 607.88 250.83 607.64 259.05 608.9 266.92 611.51 274.71 615.79 282.48 622.23 289.97 630.53 297.52 640.54 305.19 652.17 312.66 664.73 320.33 677.55 328.25 690.13 336.05 701.46 344.16 710.73 352.61 717.61 361 721.23 369.76 721.24 378.92 718.14 388.05 711.66 397.6 702.31 407.59 691.52 417.57 679.86 427.77 668.4 438.15 658.32 448.54 650.01 459.12 643.98 469.83 640.82 480.55 640.15 491.37 641.66 502.24 645.43 513.05 650.36 523.83 655.75 534.46 661.57 544.91 666.54 555.08 670.12 564.81 672.48 574.17 672.71 582.9 670.69 590.84 666.86 598.18 660.84 604.54 652.9 609.79 643.54 614.31 632.79 617.64 621.07 619.77 608.74 621.29 596.02 621.76 583.23 621.34 570.53 620.81 558.12 619.83 546.15 618.7 534.61 618.29 523.6 618.36 513.1 619.23 503.08 621.62 493.48 625.28 484.22 630.38 475.32 637.26 466.6 645.51 457.98 654.93 449.55 665.44 441.08 676.37 432.5 687.16 424 697.54 415.31 706.64 406.41 713.85 397.51 719.09 388.37 721.6 379 721.11 369.62 718.14 360.24 712.45 350.9 704.53 341.6 695.28 332.38 684.92 323.31 674.11 314.31 663.72 305.53 653.96 297.02 645.26 288.64 638.21 280.6 632.68 272.96 628.68 265.47 626.54 258.43 625.66 251.86 625.77 242.44 627.85 225.91 632.56 218.59 633.31 213.67 632.98 208.94 631.39 204.33 628.5 199.35 624.77 194.35 619.71 189.28 613.45 183.69 606.4 177.97 598.32 172.12 589.41 165.81 579.94 159.46 569.87 153.16 559.38 146.68 548.61 140.48 537.6 134.7 526.49 129.15 515.29 124.28 504.11 120.23 493.02 116.72 481.94 114.17 471 112.63 460.25 111.65 449.53 111.59 439 112.4 428.7 113.43 418.41 115.03 408.33 117.06 398.48 118.82 388.63 120.66 379.23 122.47 370.26 123.7 361.27 124.82 352.71 125.85 344.55 126.38 336.36 126.98 328.55 127.78 321.12 128.43 313.6 129.54 306.4 131.24 299.5 133.21 292.43 135.99 285.58 139.61 278.9 143.75 271.95 148.78 265.06 154.67 258.18 161.05 250.92 168.17 243.57 175.9 236.09 183.91 228.17 192.35 220.07 201.08 211.81 209.82 203.17 218.7 194.42 227.62 185.65 236.33 176.73 245.02 167.98 253.64 159.55 261.97 151.34 270.25 143.72 278.5 136.89 286.45 130.66 294.44 125.44 302.51 121.37 310.35 118.11 318.34 116.04 326.52 115.18 334.56 114.96 342.86 115.72 351.46 117.32 359.98 119.05 368.84 121.18 378.07 123.51 387.27 125.28 396.88 126.84 406.91 128.03" stroke-dasharray="8 6" transform="rotate(0, 400, 400)" opacity="0.05"></path><path d="M413.55 139.43C423.34 139.64 433.3 139.41 443.38 138.78 453.47 137.38 463.69 135.85 473.97 134.38 484.22 132.65 494.5 131.37 504.7 130.7 514.79 130.36 524.69 130.94 534.27 132.54 543.57 134.8 552.37 138.17 560.52 142.62 568.18 147.77 574.97 153.89 580.77 160.84 585.9 168.29 589.91 176.36 592.73 184.91 594.95 193.63 596.08 202.62 596.25 211.74 596.23 220.77 595.66 229.8 594.85 238.77 594.66 247.48 594.89 256.09 595.91 264.58 598.45 272.77 602.36 280.88 607.84 288.95 615.23 296.74 624.21 304.56 634.58 312.43 646.19 320.11 658.39 327.93 670.56 335.93 682.25 343.81 692.6 351.92 700.86 360.31 706.85 368.64 709.79 377.28 709.4 386.26 706.21 395.21 699.94 404.54 691.06 414.23 680.85 423.93 669.82 433.78 658.86 443.76 649.08 453.74 640.81 463.84 634.5 474.01 630.77 484.15 629.29 494.32 629.85 504.44 632.6 514.46 636.59 524.34 641.23 533.97 646.53 543.38 651.34 552.41 655.14 560.92 658.1 569.04 659.3 576.47 658.55 583.09 656.26 589.16 651.94 594.29 645.76 598.37 638.17 601.87 629.11 604.33 618.89 605.77 607.9 606.81 596.26 607.05 584.29 606.63 572.16 606.33 560.07 605.82 548.19 605.36 536.55 605.74 525.27 606.7 514.41 608.53 503.91 611.81 493.8 616.3 484.05 622.07 474.61 629.41 465.42 637.91 456.42 647.33 447.61 657.62 438.88 668.13 430.17 678.35 421.55 688.09 412.86 696.54 404.1 703.16 395.36 707.96 386.49 710.22 377.51 709.71 368.53 706.92 359.64 701.63 350.89 694.24 342.16 685.58 333.58 675.8 325.23 665.49 316.93 655.44 308.88 645.82 301.15 637.05 293.51 629.69 286.22 623.64 279.33 618.95 272.54 615.96 266.15 614.19 260.2 613.42 251.55 614.32 236.03 617.82 228.91 618.75 221.62 618.39 206.72 611.33 198.77 604.42 192.96 598.73 187.01 592.03 180.96 584.45 174.52 576.33 168.08 567.52 161.76 558.18 155.33 548.51 149.23 538.5 143.62 528.26 138.27 517.88 133.64 507.41 129.85 496.94 126.61 486.42 124.31 475.97 123.01 465.65 122.25 455.34 122.38 445.17 123.33 435.19 124.5 425.22 126.21 415.43 128.32 405.86 130.16 396.28 132.06 387.13 133.92 378.38 135.2 369.62 136.35 361.24 137.4 353.24 137.92 345.18 138.48 337.47 139.17 330.07 139.67 322.57 140.57 315.33 141.98 308.31 143.6 301.11 145.95 294.06 149.09 287.11 152.7 279.89 157.18 272.68 162.49 265.43 168.31 257.84 174.88 250.14 182.11 242.31 189.68 234.11 197.75 225.77 206.19 217.32 214.74 208.6 223.49 199.86 232.38 191.18 241.15 182.47 249.95 174.02 258.74 165.98 267.3 158.25 275.82 151.17 284.31 144.91 292.56 139.28 300.81 134.65 309.09 131.14 317.16 128.38 325.34 126.75 333.65 126.24 341.81 126.29 350.18 127.23 358.78 128.92 367.3 130.67 376.1 132.78 385.22 135.05 394.3 136.77 403.74 138.27 413.53 139.43" stroke-dasharray="5 8" transform="rotate(4.04, 400, 400)" opacity="0.09"></path><path d="M418.68 150.84C428.2 151.07 437.78 150.88 447.41 150.31 457.03 149 466.67 147.56 476.26 146.13 485.81 144.42 495.26 143.09 504.51 142.29 513.61 141.73 522.4 142.01 530.76 143.19 538.83 144.97 546.31 147.78 553.07 151.6 559.38 156.1 564.84 161.54 569.34 167.84 573.32 174.66 576.31 182.15 578.3 190.18 579.91 198.47 580.7 207.1 580.82 215.97 581.01 224.83 580.95 233.79 580.93 242.75 581.71 251.55 583.09 260.29 585.36 268.96 589.13 277.39 594.2 285.75 600.69 294.05 608.84 302.12 618.29 310.18 628.81 318.25 640.24 326.15 651.95 334.13 663.37 342.23 674.16 350.21 683.51 358.36 690.8 366.72 695.95 375.02 698.27 383.56 697.53 392.37 694.28 401.16 688.23 410.24 679.8 419.62 670.18 429.01 659.74 438.47 649.3 447.99 639.85 457.51 631.65 467.06 625.16 476.59 620.94 486.08 618.73 495.51 618.42 504.78 620.19 513.94 623.22 522.86 627.04 531.44 631.71 539.79 636.18 547.68 639.98 554.99 644.23 565.05 643.05 580.62 637.08 585.81 631.22 588.53 623.85 590.38 615.23 591.39 605.74 592.21 595.42 592.44 584.54 592.25 573.32 592.35 561.9 592.43 550.48 592.73 539.1 593.93 527.92 595.79 517.01 598.52 506.34 602.61 495.98 607.81 485.95 614.14 476.16 621.82 466.65 630.45 457.37 639.79 448.27 649.78 439.32 659.83 430.49 669.47 421.76 678.56 413.07 686.37 404.41 692.44 395.78 696.81 387.14 698.83 378.49 698.3 369.85 695.7 361.4 690.78 353.16 683.9 344.93 675.82 336.93 666.62 329.2 656.83 321.5 647.16 314.1 637.76 307.03 629 300.01 621.42 293.34 614.95 287.05 609.67 277.86 604.63 261.28 601.36 253.76 601.88 246.29 603.29 231.7 604.13 224.26 602.51 218.88 600.66 213.4 597.78 207.8 593.88 201.76 589.4 195.61 583.95 189.39 577.63 182.87 570.8 176.4 563.25 170.11 555.09 163.79 546.6 157.86 537.66 152.45 528.4 147.36 518.96 143.01 509.32 139.5 499.58 136.54 489.77 134.51 479.94 133.45 470.15 132.9 460.35 133.21 450.63 134.3 441.04 135.59 431.46 137.39 422.01 139.57 412.72 141.48 403.43 143.44 394.52 145.35 385.96 146.68 377.39 147.88 369.15 148.96 361.23 149.49 353.26 150.03 345.57 150.65 338.13 151.04 330.58 151.76 323.22 152.91 316.03 154.21 308.65 156.17 301.36 158.84 294.12 161.94 286.63 165.85 279.11 170.57 271.53 175.78 263.65 181.75 255.67 188.41 247.58 195.45 239.2 203.04 230.74 211.07 222.23 219.28 213.55 227.79 204.93 236.49 196.47 245.18 188.08 253.97 180.03 262.79 172.48 271.47 165.28 280.14 158.79 288.79 153.15 297.26 148.12 305.72 144.09 314.19 141.12 322.49 138.85 330.84 137.63 339.27 137.43 347.58 137.72 356.03 138.8 364.64 140.56 373.19 142.33 381.94 144.4 390.94 146.6 399.91 148.26 409.15 149.71 418.67 150.84" stroke-dasharray="8 5" transform="rotate(8.08, 400, 400)" opacity="0.13"></path><path d="M421.75 162.24C430.94 162.49 440.09 162.34 449.18 161.85 458.27 160.63 467.25 159.28 476.09 157.92 484.87 156.25 493.42 154.89 501.67 154 509.77 153.26 517.46 153.26 524.63 154.08 531.53 155.4 537.81 157.68 543.35 160.91 548.52 164.75 552.89 169.52 556.39 175.14 559.52 181.27 561.83 188.12 563.35 195.56 564.71 203.31 565.5 211.48 565.89 219.96 566.57 228.52 567.25 237.26 568.17 246.08 570 254.82 572.54 263.57 576.01 272.28 580.89 280.84 586.96 289.34 594.27 297.78 602.95 306.05 612.67 314.29 623.16 322.52 634.25 330.6 645.36 338.71 655.97 346.89 665.82 354.96 674.19 363.15 680.57 371.47 684.93 379.74 686.68 388.19 685.64 396.82 682.34 405.43 676.53 414.26 668.55 423.29 659.49 432.33 649.64 441.37 639.73 450.38 630.62 459.38 622.56 468.33 615.93 477.17 611.31 485.96 608.47 494.59 607.36 502.99 608.19 511.26 610.29 519.21 613.25 526.76 617.19 534.08 621.18 540.89 624.78 547.1 630.08 561.94 619.77 575.34 609.9 576.92 601.99 577.74 593.12 578.18 583.54 578.39 573.48 579.02 563.02 579.78 552.36 580.89 541.59 582.92 530.84 585.63 520.21 589.19 509.68 594 499.37 599.79 489.31 606.56 479.42 614.46 469.77 623.11 460.38 632.28 451.12 641.91 442.06 651.45 433.18 660.5 424.39 668.94 415.72 676.14 407.17 681.67 398.64 685.64 390.2 687.44 381.85 686.9 373.49 684.47 365.41 679.91 357.61 673.53 349.8 666.01 342.28 657.39 335.07 648.13 327.87 638.88 320.98 629.75 314.44 621.08 307.9 613.38 301.7 606.59 295.85 600.83 287.2 594.74 271.33 589.05 263.94 588.5 256.43 589.12 241.36 589.62 233.54 588.49 227.9 587.21 222.16 585.07 216.3 582.05 210.07 578.57 203.76 574.21 197.43 569.01 190.88 563.38 184.45 557 178.24 550 172.09 542.66 166.38 534.82 161.23 526.58 156.43 518.14 152.39 509.41 149.19 500.49 146.53 491.48 144.78 482.35 143.96 473.18 143.62 463.99 144.1 454.8 145.32 445.66 146.72 436.51 148.59 427.44 150.83 418.47 152.8 409.49 154.8 400.82 156.75 392.44 158.15 384.05 159.4 375.92 160.51 368.05 161.09 360.13 161.63 352.42 162.21 344.9 162.52 337.27 163.1 329.78 164.04 322.39 165.06 314.83 166.66 307.31 168.9 299.8 171.5 292.07 174.86 284.29 178.98 276.46 183.56 268.37 188.9 260.21 194.92 251.98 201.35 243.54 208.37 235.07 215.87 226.63 223.63 218.13 231.75 209.76 240.14 201.64 248.6 193.67 257.22 186.11 265.93 179.11 274.58 172.52 283.28 166.65 291.97 161.63 300.55 157.22 309.13 153.77 317.7 151.32 326.15 149.51 334.63 148.67 343.14 148.75 351.56 149.25 360.06 150.46 368.66 152.26 377.2 154.02 385.89 156.04 394.73 158.17 403.55 159.76 412.55 161.15 421.74 162.24" stroke-dasharray="5 9" transform="rotate(12.12, 400, 400)" opacity="0.16"></path><path d="M422.43 173.65C431.23 173.91 439.9 173.81 448.41 173.38 456.91 172.27 465.21 171.01 473.26 169.73 481.24 168.12 488.91 166.76 496.19 165.8 503.33 164.92 509.99 164.69 516.11 165.19 524.61 166.99 537.86 175.82 542.46 182.79 545.08 188.23 547.05 194.38 548.45 201.16 549.87 208.29 550.96 215.9 551.87 223.87 553.24 232.01 554.79 240.39 556.74 248.92 559.63 257.46 563.28 266.07 567.84 274.69 573.67 283.23 580.54 291.74 588.46 300.22 597.48 308.58 607.26 316.9 617.54 325.2 628.15 333.38 638.57 341.57 648.33 349.78 657.24 357.91 664.66 366.09 670.15 374.34 673.79 382.55 675.02 390.87 673.72 399.3 670.41 407.71 664.83 416.25 657.29 424.92 648.78 433.58 639.52 442.17 630.12 450.64 621.39 459.09 613.5 467.41 606.82 475.54 601.88 483.61 598.5 491.45 596.66 498.97 596.63 506.38 597.82 513.41 599.92 519.98 604.76 529.28 614.24 544.6 617.01 550.4 617.56 555.13 610.4 561.09 602.8 562.66 596.46 563.68 589.1 564.49 580.92 565.23 572.18 566.48 562.9 567.98 553.26 569.9 543.37 572.72 533.34 576.23 523.28 580.52 513.2 585.93 503.22 592.19 493.4 599.27 483.66 607.28 474.11 615.86 464.79 624.78 455.56 633.99 446.53 643 437.7 651.43 428.94 659.25 420.35 665.84 411.94 670.87 403.55 674.45 395.3 676.04 387.2 675.49 379.1 673.24 371.33 669.02 363.88 663.11 356.42 656.14 349.28 648.1 342.47 639.38 335.64 630.58 329.14 621.76 322.96 613.26 316.76 605.53 310.87 598.53 305.29 592.39 299.65 587.44 294.27 583.4 289.15 580.23 281.34 577.46 266.16 575.49 258.53 575.25 250.41 575.15 233.29 572.4 224.23 569.2 217.85 566.51 211.45 563.02 205.08 558.78 198.57 554.18 192.24 548.87 186.19 542.92 180.28 536.68 174.83 529.89 169.98 522.65 165.52 515.21 161.81 507.42 158.93 499.35 156.59 491.18 155.12 482.81 154.53 474.32 154.4 465.79 155.04 457.18 156.38 448.53 157.87 439.89 159.81 431.23 162.08 422.59 164.1 413.95 166.15 405.54 168.14 397.34 169.59 389.13 170.9 381.12 172.07 373.29 172.69 365.42 173.26 357.69 173.84 350.09 174.11 342.39 174.58 334.77 175.35 327.21 176.13 319.5 177.42 311.8 179.27 304.08 181.4 296.19 184.23 288.24 187.77 280.25 191.72 272.07 196.4 263.85 201.76 255.6 207.52 247.24 213.9 238.91 220.79 230.68 227.98 222.47 235.59 214.48 243.52 206.8 251.6 199.34 259.9 192.36 268.35 185.96 276.82 180.01 285.38 174.79 293.98 170.4 302.52 166.6 311.09 163.71 319.65 161.76 328.14 160.37 336.64 159.87 345.15 160.21 353.59 160.88 362.07 162.18 370.59 164 379.08 165.74 387.64 167.7 396.28 169.74 404.9 171.26 413.62 172.6 422.42 173.65" stroke-dasharray="8 7" transform="rotate(16.16, 400, 400)" opacity="0.20"></path><path d="M420.64 185.05C429.01 185.32 437.16 185.27 445.07 184.91 452.95 183.9 460.56 182.76 467.85 181.56 475.07 180.03 481.91 178.7 488.32 177.69 497.49 176.51 512.9 177.74 518.97 180.54 524.16 184.9 531.54 198.31 534.08 207.1 535.83 213.55 537.44 220.51 539.06 227.89 541.24 235.49 543.73 243.39 546.71 251.5 550.62 259.69 555.27 268.01 560.77 276.4 567.36 284.77 574.84 293.16 583.15 301.54 592.29 309.85 601.96 318.14 611.87 326.4 621.9 334.58 631.55 342.76 640.42 350.92 648.39 359.02 654.89 367.13 659.56 375.26 662.53 383.37 663.3 391.51 661.77 399.69 658.48 407.86 653.14 416.09 646.04 424.36 638.06 432.62 629.37 440.73 620.5 448.64 612.15 456.54 604.48 464.22 597.8 471.65 592.62 479.03 588.79 486.1 586.32 492.81 585.66 502.51 590.74 519.39 594.83 526.36 600.39 542.01 586.12 550.91 576.43 552.92 569.1 554.85 561.11 557.09 552.64 559.79 543.85 563.35 534.76 567.56 525.51 572.48 516.15 578.37 506.76 584.98 497.42 592.24 488.09 600.25 478.87 608.67 469.81 617.26 460.8 626.01 451.96 634.46 443.32 642.28 434.72 649.47 426.3 655.48 418.07 660.02 409.86 663.24 401.82 664.64 393.96 664.08 386.1 662 378.59 658.11 371.42 652.66 364.24 646.22 357.39 638.74 350.86 630.57 344.3 622.24 338.05 613.8 332.11 605.52 326.11 597.85 320.39 590.74 314.93 584.33 309.38 578.93 304.03 574.33 298.88 570.5 290.96 566.61 275.24 562.53 267.23 561.51 261.57 561.2 255.86 560.68 250.08 559.83 243.98 558.98 237.8 557.61 231.58 555.65 225.13 553.5 218.7 550.68 212.36 547.19 205.97 543.44 199.82 539.02 194.01 534 188.38 528.73 183.26 522.9 178.75 516.6 174.65 510.12 171.3 503.23 168.76 496.01 166.73 488.68 165.54 481.09 165.19 473.29 165.25 465.45 166.04 457.45 167.48 449.33 169.04 441.21 171.03 433 173.34 424.73 175.39 416.46 177.47 408.33 179.49 400.34 181.01 392.33 182.38 384.45 183.6 376.69 184.3 368.89 184.92 361.17 185.51 353.52 185.77 345.79 186.18 338.1 186.83 330.43 187.42 322.64 188.44 314.84 189.95 307.01 191.67 299.05 194.01 291.05 196.99 283.03 200.34 274.89 204.37 266.75 209.04 258.63 214.11 250.48 219.79 242.42 226 234.53 232.54 226.73 239.52 219.22 246.88 212.07 254.44 205.21 262.27 198.85 270.31 193.11 278.44 187.82 286.71 183.25 295.05 179.5 303.41 176.28 311.81 173.92 320.22 172.43 328.61 171.44 337 171.24 345.39 171.79 353.75 172.61 362.11 173.97 370.47 175.79 378.81 177.49 387.17 179.38 395.53 181.32 403.89 182.77 412.26 184.04 420.63 185.05" stroke-dasharray="6 2" transform="rotate(20.200000000000003, 400, 400)" opacity="0.24"></path><path d="M416.58 196.46C424.47 196.74 432.09 196.73 439.4 196.44 446.69 195.54 453.65 194.5 460.23 193.41 469.82 191.32 486.66 188.35 493.76 188.05 500.18 188.77 510.29 194.41 514.13 199.4 516.6 203.43 518.77 208.15 520.74 213.49 523.01 219.22 525.29 225.48 527.73 232.18 530.76 239.15 534.19 246.46 538.14 254.04 542.95 261.75 548.46 269.65 554.71 277.66 561.86 285.71 569.73 293.83 578.2 301.97 587.29 310.09 596.66 318.22 606.08 326.32 615.42 334.39 624.25 342.43 632.23 350.44 639.27 358.43 644.9 366.39 648.8 374.33 651.15 382.25 651.51 390.16 649.8 398.05 646.54 405.94 641.46 413.81 634.78 421.66 627.33 429.5 619.2 437.11 610.84 444.48 602.9 451.82 595.48 458.9 588.86 465.67 583.52 472.39 579.33 478.76 576.33 484.75 574.56 493.38 577.22 508.2 580.35 514.26 586.85 528.6 577.61 538.63 569.95 541.59 564.01 544.2 557.36 547.16 550.13 550.58 542.55 554.79 534.56 559.6 526.3 565.02 517.85 571.26 509.26 578.09 500.61 585.42 491.9 593.33 483.22 601.49 474.61 609.69 466.02 617.94 457.54 625.81 449.21 633.02 440.9 639.6 432.74 645.05 424.76 649.14 416.8 652.02 409 653.24 401.38 652.68 393.76 650.75 386.49 647.17 379.54 642.17 372.58 636.24 365.94 629.32 359.6 621.7 353.21 613.87 347.11 605.83 341.28 597.84 335.38 590.31 329.71 583.18 324.25 576.6 318.67 570.87 313.26 565.81 307.98 561.43 302.52 557.96 297.13 555.09 291.8 552.71 286.22 551.06 280.64 549.69 275.03 548.48 269.14 547.7 263.2 546.83 257.2 545.77 250.94 544.83 244.65 543.52 238.37 541.77 231.92 539.93 225.55 537.55 219.34 534.61 213.15 531.49 207.25 527.78 201.73 523.51 196.45 519.06 191.7 514.07 187.57 508.59 183.86 502.97 180.88 496.91 178.68 490.49 176.98 483.96 176.06 477.12 175.93 470.01 176.17 462.85 177.09 455.47 178.62 447.9 180.25 440.32 182.27 432.58 184.59 424.7 186.67 416.83 188.77 409.01 190.82 401.25 192.4 393.49 193.83 385.78 195.12 378.13 195.9 370.44 196.58 362.79 197.22 355.16 197.5 347.48 197.89 339.79 198.45 332.1 198.91 324.33 199.72 316.53 200.94 308.71 202.3 300.82 204.2 292.9 206.67 284.98 209.45 277.02 212.85 269.09 216.85 261.25 221.22 253.44 226.18 245.78 231.67 238.35 237.49 231.07 243.78 224.12 250.47 217.59 257.4 211.37 264.64 205.69 272.14 200.62 279.77 196 287.59 192.08 295.53 188.93 303.53 186.28 311.61 184.42 319.72 183.35 327.86 182.7 336.01 182.77 344.14 183.5 352.28 184.42 360.41 185.83 368.5 187.62 376.6 189.27 384.66 191.07 392.68 192.91 400.7 194.28 408.67 195.49 416.57 196.46" stroke-dasharray="8 1" transform="rotate(24.24, 400, 400)" opacity="0.28"></path><path d="M410.69 207.87C418.09 208.16 425.17 208.18 431.92 207.97 438.64 207.17 445.01 206.25 450.99 205.26 459.69 203.32 474.87 200.32 481.28 199.79 492.03 202.22 504.97 213.81 508.81 220.43 511.71 225.42 514.74 230.94 518.01 236.93 521.88 243.19 526.17 249.83 530.98 256.78 536.55 263.91 542.72 271.26 549.51 278.77 557.01 286.37 565.05 294.08 573.5 301.85 582.34 309.64 591.29 317.46 600.09 325.28 608.68 333.1 616.66 340.9 623.73 348.66 629.89 356.41 634.68 364.13 637.87 371.79 639.67 379.45 639.67 387.07 637.82 394.62 634.62 402.17 629.79 409.65 623.53 417.05 616.58 424.45 608.99 431.58 601.16 438.41 593.64 445.23 586.5 451.74 580 457.91 574.57 464.04 570.11 469.81 566.66 475.18 563.92 482.94 564.26 496.17 566.35 501.61 572.75 515.62 567.33 527.39 561.5 531.32 556.85 534.57 551.48 538.19 545.5 542.24 539.15 547.01 532.33 552.28 525.14 558.07 517.74 564.55 510.08 571.47 502.27 578.76 494.36 586.46 486.38 594.3 478.39 602.06 470.37 609.78 462.39 617.06 454.5 623.66 446.61 629.64 438.82 634.57 431.17 638.22 423.53 640.78 416.02 641.83 408.65 641.27 401.29 639.49 394.24 636.22 387.48 631.64 380.71 626.21 374.22 619.83 367.99 612.76 361.72 605.44 355.69 597.84 349.89 590.19 344 582.87 338.3 575.81 332.76 569.17 327.1 563.22 321.55 557.81 316.09 552.98 310.45 548.95 304.86 545.46 299.29 542.44 293.5 540.1 287.69 538.09 281.85 536.29 275.78 534.96 269.67 533.64 263.53 532.25 257.21 531.07 250.9 529.64 244.63 527.9 238.29 526.17 232.08 524.03 226.08 521.42 220.17 518.73 214.59 515.53 209.43 511.83 204.54 508.01 200.19 503.7 196.47 498.92 193.17 494.02 190.57 488.7 188.72 482.98 187.33 477.18 186.67 471.03 186.75 464.57 187.17 458.07 188.2 451.28 189.8 444.26 191.48 437.22 193.53 429.97 195.85 422.51 197.94 415.05 200.06 407.57 202.13 400.1 203.75 392.62 205.25 385.14 206.61 377.66 207.47 370.16 208.24 362.65 208.94 355.13 209.28 347.57 209.68 339.99 210.2 332.39 210.58 324.75 211.23 317.09 212.22 309.42 213.28 301.71 214.81 294.01 216.83 286.35 219.09 278.7 221.9 271.13 225.28 263.69 228.97 256.34 233.21 249.19 237.97 242.32 243.04 235.64 248.59 229.34 254.55 223.48 260.76 217.94 267.32 212.94 274.16 208.56 281.18 204.6 288.42 201.31 295.81 198.74 303.31 196.61 310.92 195.2 318.59 194.51 326.32 194.16 334.08 194.45 341.84 195.32 349.63 196.32 357.4 197.74 365.12 199.48 372.86 201.07 380.54 202.78 388.15 204.51 395.76 205.8 403.28 206.93 410.68 207.86" stroke-dasharray="2 0" transform="rotate(28.28, 400, 400)" opacity="0.32"></path><path d="M403.62 219.27C410.52 219.57 417.09 219.64 423.32 219.48 432.47 218.39 448.89 215.34 456.12 213.82 468.78 212.03 484.58 214.74 489.09 218 493.82 222.4 504.04 234.63 509.98 242.26 514.6 247.78 519.63 253.7 525.13 259.96 531.26 266.41 537.9 273.12 545.01 280.03 552.66 287.07 560.66 294.25 568.9 301.52 577.35 308.85 585.73 316.25 593.84 323.66 601.62 331.1 608.73 338.53 614.92 345.94 620.22 353.35 624.24 360.73 626.78 368.04 628.08 375.36 627.77 382.61 625.82 389.77 622.69 396.94 618.12 404.01 612.28 410.95 605.82 417.9 598.76 424.55 591.44 430.89 584.35 437.21 577.53 443.21 571.2 448.86 565.75 454.49 561.1 459.75 557.3 464.64 552.81 477.78 555 493.67 556.97 497.76 559.3 505.4 555.53 517.3 551.23 522.14 547.71 525.98 543.5 530.17 538.68 534.75 533.52 539.94 527.85 545.55 521.75 551.59 515.43 558.16 508.78 565.06 501.9 572.2 494.88 579.62 487.71 587.06 480.44 594.34 473.12 601.5 465.77 608.19 458.42 614.19 451.06 619.6 443.73 624.02 436.48 627.26 429.23 629.52 422.05 630.42 414.97 629.87 407.89 628.23 401.07 625.25 394.49 621.06 387.9 616.11 381.53 610.27 375.38 603.74 369.19 596.94 363.19 589.81 357.36 582.55 351.46 575.5 345.69 568.6 340.03 561.99 334.26 555.93 328.56 550.3 322.92 545.13 317.12 540.64 311.34 536.63 305.56 533.04 299.61 530.09 293.63 527.46 287.64 525.07 281.47 523.16 275.29 521.34 269.12 519.52 262.83 517.98 256.59 516.3 250.46 514.42 244.32 512.63 238.36 510.53 232.66 508.07 224.5 504.17 210.75 494.15 205.5 488.01 201.5 481.33 197.59 465.91 197.66 457.27 198.23 451.36 199.37 445.15 201.02 438.65 202.74 432.14 204.79 425.36 207.1 418.34 209.19 411.31 211.32 404.22 213.4 397.07 215.07 389.93 216.63 382.73 218.05 375.5 219.01 368.26 219.87 360.98 220.65 353.66 221.07 346.34 221.51 338.98 222.04 331.6 222.37 324.21 222.93 316.8 223.75 309.41 224.58 302.03 225.8 294.68 227.44 287.41 229.25 280.2 231.55 273.1 234.34 266.18 237.39 259.4 240.96 252.85 245.01 246.62 249.34 240.61 254.13 234.99 259.34 229.83 264.78 224.99 270.6 220.69 276.71 216.98 283.02 213.65 289.57 210.95 296.32 208.92 303.2 207.27 310.21 206.26 317.33 205.9 324.52 205.81 331.76 206.27 339.03 207.24 346.34 208.29 353.64 209.7 360.9 211.38 368.18 212.88 375.41 214.49 382.54 216.12 389.68 217.31 396.72 218.38 403.61 219.27" stroke-dasharray="7 6" transform="rotate(32.32, 400, 400)" opacity="0.35"></path><path d="M396.16 230.68C405.6 231.03 422.92 230.07 430.75 228.98 438.24 227.37 451.58 224.58 457.51 223.79 468.55 224.52 484.52 231.62 490.21 236.22 494.42 239.77 498.87 243.82 503.61 248.33 508.84 253.1 514.44 258.27 520.44 263.79 526.93 269.51 533.82 275.52 541.04 281.75 548.62 288.13 556.41 294.69 564.27 301.37 572.19 308.14 579.91 315 587.26 321.9 594.22 328.85 600.46 335.82 605.79 342.77 610.28 349.75 613.58 356.69 615.54 363.58 616.4 370.48 615.83 377.31 613.8 384.03 610.77 390.77 606.46 397.4 601.02 403.89 595.04 410.38 588.51 416.58 581.69 422.46 575.04 428.33 568.56 433.88 562.44 439.1 554.67 446.74 543.96 460.27 541.11 466.18 540.73 476.61 543.98 490.09 544.82 494.19 545.12 498.63 542.48 508.41 539.38 514.07 536.79 518.4 533.56 523.04 529.76 528.02 525.67 533.51 521.06 539.34 516 545.48 510.73 552.03 505.09 558.8 499.14 565.69 493.06 572.76 486.75 579.75 480.27 586.51 473.72 593.1 467.06 599.19 460.33 604.62 453.57 609.47 446.78 613.4 439.98 616.26 433.19 618.25 426.4 619.01 419.64 618.46 412.88 616.96 406.31 614.25 399.92 610.45 393.52 605.96 387.29 600.63 381.21 594.64 375.1 588.36 369.13 581.72 363.27 574.89 357.35 568.17 351.51 561.51 345.75 555.02 339.9 548.95 334.08 543.2 328.3 537.82 322.39 532.99 316.48 528.56 310.58 524.51 304.54 521.01 298.49 517.82 292.44 514.89 286.28 512.4 280.14 510.06 274.04 507.79 267.9 505.81 261.85 503.78 255.96 501.64 247.3 498.55 231.66 491.21 224.98 486.76 219.27 481.93 211.3 470.34 209.2 463.58 208.31 456.41 209.99 440.31 212.29 431.45 214.02 425.44 216.07 419.13 218.36 412.56 220.44 405.98 222.56 399.29 224.64 392.52 226.35 385.76 227.96 378.91 229.45 372.01 230.5 365.1 231.46 358.14 232.34 351.14 232.85 344.15 233.36 337.11 233.93 330.08 234.27 323.05 234.78 316.03 235.5 309.05 236.17 302.11 237.16 295.24 238.49 288.48 239.92 281.8 241.78 275.29 244.07 268.98 246.55 262.84 249.5 256.96 252.89 251.42 256.51 246.11 260.57 241.2 265.03 236.76 269.7 232.61 274.75 228.98 280.11 225.91 285.65 223.18 291.46 221.03 297.49 219.48 303.65 218.25 309.99 217.6 316.45 217.51 323 217.63 329.64 218.23 336.32 219.26 343.05 220.33 349.8 221.7 356.51 223.3 363.27 224.72 369.97 226.21 376.59 227.73 383.22 228.84 389.75 229.83 396.15 230.68" stroke-dasharray="6 9" transform="rotate(36.36, 400, 400)" opacity="0.39"></path><path d="M389.12 242.08C397.86 242.46 414.02 241.74 421.42 240.82 431.11 238.63 439.8 236.88 447.61 236.01 455.71 235.18 463.38 236.03 470.94 238.7 479.49 242.28 488.65 247.86 498.77 255.22 510.48 263.52 523.43 273.32 537.38 284.22 552.2 295.68 566.9 307.89 580.31 320.45 592 333.25 600.33 346.18 604.15 358.96 604.63 365.37 603.84 371.73 601.78 378 598.86 384.27 594.81 390.44 589.77 396.49 584.25 402.53 578.22 408.29 571.9 413.77 565.7 419.23 559.58 424.4 553.72 429.27 543.85 439 536.21 447.54 531 454.94 528.93 462.45 528.44 469.06 528.68 475.01 530.14 481.57 530.72 488.04 529.8 494.8 528.36 502.91 524.75 511.93 519.01 521.99 512.39 533.65 503.89 546.23 493.91 559.19 483.44 572.47 471.94 584.77 459.82 594.92 453.71 599.25 447.49 602.73 441.2 605.23 434.9 606.96 428.54 607.59 422.15 607.06 415.75 605.69 409.46 603.24 403.3 599.81 397.12 595.75 391.04 590.92 385.07 585.46 373.04 573.76 361.28 560.99 349.75 548.21 337.92 536.63 326.11 526.09 314.35 516.8 302.26 509.4 290.21 502.99 278.44 497.2 266.71 492.61 255.64 487.88 245.72 482.6 236.61 477.68 229.25 471.71 224.07 464.53 220.28 457.31 218.84 448.77 219.78 438.94 221.24 431.38 226.35 414.72 229.61 405.67 231.67 399.55 233.77 393.29 235.85 386.94 237.58 380.59 239.24 374.16 240.79 367.65 242.69 354.67 244.3 341.46 245.84 328.25 246.44 315.19 247.7 302.27 249.92 289.85 252.29 277.88 256.19 266.74 261.63 256.87 267.79 247.91 275.53 240.63 284.58 235.38 294.29 231.28 305.04 229.26 316.47 229.33 328.25 229.99 340.43 232.1 352.67 235.25 358.83 236.56 364.98 237.94 371.06 239.34 377.16 240.36 383.19 241.28 389.11 242.08" stroke-dasharray="10 2" transform="rotate(40.400000000000006, 400, 400)" opacity="0.43"></path><path d="M383.27 253.49C394.21 253.66 404.34 253.34 413.64 252.66 422.98 250.75 431.64 249.19 439.75 248.34 448.21 247.38 456.53 247.81 464.99 249.81 474.35 252.47 484.38 256.92 495.25 263 507.34 269.89 520.33 278.22 533.85 287.66 547.75 297.66 561.12 308.47 572.93 319.74 582.99 331.28 589.85 343.05 592.62 354.76 592.12 366.56 587.29 378.18 578.51 389.39 568.14 400.6 556.5 410.82 545.02 420.01 535.34 429.21 527.39 437.44 521.43 444.78 518.2 452.31 516.46 459.22 515.58 465.72 516.07 472.87 516.14 480.12 515.19 487.73 514.14 496.53 511.37 506.13 506.81 516.55 501.64 528.18 494.73 540.39 486.34 552.64 477.52 564.92 467.54 576.07 456.72 585.12 445.78 592.23 434.21 595.95 422.22 595.65 410.22 592.47 398.38 585.69 386.76 576.19 375.08 565.51 363.48 553.64 352 541.51 340.33 530.19 328.65 519.54 317.05 509.86 305.29 501.74 293.68 494.48 282.49 487.86 271.52 482.38 261.35 476.95 252.4 471.25 244.33 466.01 237.96 460.01 233.67 453.08 230.63 446.21 229.74 438.22 230.98 429.1 232.93 419.94 236.36 409.65 240.86 398.29 244.68 386.93 248.52 375.09 252.06 362.99 254.18 350.95 256.02 338.73 257.73 326.59 258.48 314.64 259.71 302.95 261.67 291.85 263.58 281.23 266.75 271.52 271.24 263.09 276.23 255.51 282.66 249.52 290.33 245.4 298.53 242.22 307.8 240.88 317.81 241.34 328.15 242.2 338.98 244.26 350.01 247.21 361.16 249.37 372.33 251.57 383.26 253.49" stroke-dasharray="10 1" transform="rotate(44.44, 400, 400)" opacity="0.47"></path><path d="M379.27 264.89C389.37 265.12 398.95 264.94 407.98 264.47 417.07 262.86 425.79 261.52 434.23 260.75 443.03 259.74 451.92 259.89 461.08 261.36 471.01 263.28 481.57 266.75 492.79 271.69 504.87 277.28 517.49 284.23 530.24 292.28 542.99 300.83 554.9 310.22 565.11 320.17 573.59 330.38 579.1 340.92 580.95 351.53 580.04 362.22 575.37 372.86 567.26 383.22 557.78 393.59 547.08 403.16 536.32 411.9 526.96 420.68 518.86 428.73 512.36 436.14 508.17 443.77 505.31 451.03 503.35 458.09 502.79 465.76 502.13 473.64 500.86 481.91 499.8 491.17 497.46 501.08 493.67 511.58 489.53 522.94 483.85 534.58 476.77 545.99 469.36 557.22 460.76 567.22 451.17 575.2 441.47 581.42 430.97 584.61 419.84 584.25 408.7 581.4 397.49 575.35 386.32 566.82 375.11 557.15 363.87 546.24 352.66 534.86 341.36 523.98 330.06 513.46 318.88 503.62 307.7 495.01 296.78 487.11 286.39 479.81 276.36 473.54 267.21 467.44 259.33 461.25 252.32 455.58 246.96 449.4 243.52 442.54 241.18 435.82 240.78 428.21 242.28 419.65 244.35 411.09 247.74 401.55 252.12 391.06 255.87 380.57 259.68 369.67 263.27 358.59 265.57 347.57 267.64 336.46 269.56 325.52 270.52 314.8 271.81 304.43 273.65 294.73 275.27 285.5 277.91 277.21 281.65 270.18 285.68 263.9 290.98 259.09 297.41 255.96 304.25 253.57 312.12 252.78 320.78 253.53 329.71 254.49 339.23 256.47 349.08 259.19 359.03 261.13 369.16 263.12 379.27 264.89" stroke-dasharray="1 11" transform="rotate(48.48, 400, 400)" opacity="0.51"></path><path d="M377.54 276.3C386.89 276.57 395.97 276.53 404.77 276.26 413.65 274.95 422.41 273.86 431.12 273.22 440.15 272.26 449.41 272.24 459.01 273.31 469.18 274.66 479.9 277.33 491.07 281.3 502.75 285.75 514.66 291.45 526.37 298.2 537.79 305.36 548.18 313.39 556.8 322.04 563.8 330.92 568.1 340.23 569.17 349.74 567.93 359.31 563.45 368.97 556 378.52 547.4 388.08 537.62 397.06 527.63 405.44 518.68 413.86 510.61 421.8 503.77 429.31 498.82 437.05 495.01 444.63 492.05 452.15 490.45 460.22 488.95 468.55 487.16 477.24 485.79 486.7 483.51 496.65 480.12 506.96 476.6 517.83 471.79 528.74 465.72 539.2 459.44 549.33 452 558.2 443.53 565.16 434.97 570.56 425.51 573.26 415.28 572.84 405.04 570.31 394.57 564.95 384 557.35 373.43 548.69 362.73 538.76 352.04 528.22 341.34 517.93 330.65 507.73 320.16 497.97 309.79 489.13 299.76 480.82 290.36 473.04 281.4 466.12 273.37 459.44 266.61 452.8 260.67 446.67 256.28 440.24 253.64 433.36 251.95 426.66 251.98 419.3 253.69 411.2 255.83 403.13 259.15 394.26 263.37 384.61 267.03 374.97 270.79 365.04 274.4 355.02 276.87 345.08 279.15 335.15 281.29 325.48 282.5 316.02 283.93 307.01 285.77 298.71 287.26 290.85 289.55 283.92 292.74 278.2 296.04 273.09 300.42 269.32 305.82 267.04 311.48 265.3 318.12 264.93 325.55 265.86 333.19 266.86 341.48 268.7 350.23 271.17 359.05 272.89 368.2 274.66 377.54 276.3" stroke-dasharray="7 1" transform="rotate(52.52, 400, 400)" opacity="0.54"></path><path d="M378.29 287.7C386.93 288.01 395.55 288.09 404.11 288.02 412.74 287 421.45 286.17 430.27 285.7 439.34 284.85 448.72 284.77 458.41 285.59 468.5 286.52 478.98 288.57 489.71 291.73 500.66 295.23 511.58 299.85 522.05 305.44 532.04 311.36 540.89 318.12 548 325.55 553.64 333.16 556.86 341.28 557.28 349.72 555.79 358.22 551.55 366.93 544.75 375.71 536.98 384.49 528.11 392.92 518.92 400.96 510.47 409.06 502.59 416.88 495.59 424.46 490.12 432.27 485.56 440.05 481.75 447.89 479.18 456.17 476.83 464.72 474.41 473.55 472.52 482.95 470.03 492.68 466.74 502.56 463.49 512.75 459.21 522.78 453.87 532.23 448.42 541.24 441.9 549.01 434.4 555 426.82 559.63 418.34 561.89 409.03 561.44 399.72 559.21 390.08 554.49 380.26 547.78 370.47 540.1 360.52 531.17 350.56 521.54 340.67 511.97 330.83 502.28 321.25 492.81 311.87 483.99 302.91 475.52 294.63 467.48 286.83 460.13 279.97 453.01 274.32 446.03 269.43 439.5 265.95 432.83 264.06 425.9 262.94 419.17 263.33 411.98 265.18 404.28 267.37 396.61 270.59 388.35 274.63 379.51 278.17 370.68 281.85 361.71 285.44 352.78 288.05 343.91 290.52 335.18 292.87 326.79 294.35 318.59 295.99 310.9 297.91 303.96 300.46 294.54 308.99 281.63 315.41 278.59 320.13 277.36 325.73 277.3 332.12 278.31 338.63 279.28 345.83 280.95 353.59 283.14 361.38 284.64 369.65 286.21 378.29 287.7" stroke-dasharray="8 2" transform="rotate(56.56, 400, 400)" opacity="0.58"></path><path d="M381.43 299.11C389.41 299.44 397.55 299.64 405.79 299.74 414.1 299 422.61 298.43 431.31 298.17 440.2 297.49 449.39 297.44 458.83 298.11 468.5 298.78 478.41 300.38 488.36 302.92 498.32 305.66 508.04 309.38 517.13 313.99 525.65 318.82 532.99 324.47 538.69 330.79 543.11 337.24 545.4 344.26 545.28 351.7 543.63 359.17 539.65 366.98 533.49 375.02 526.54 383.07 518.56 390.96 510.18 398.65 502.32 406.4 494.75 414.05 487.79 421.62 482.01 429.38 476.92 437.21 472.45 445.15 469.04 453.42 465.91 461.93 462.84 470.64 460.33 479.73 457.47 488.99 454.06 498.24 450.82 507.6 446.79 516.65 441.92 525.03 437.01 532.93 431.2 539.64 424.51 544.73 417.77 548.65 410.18 550.51 401.79 550.03 393.4 548.08 384.66 543.97 375.72 538.11 366.83 531.37 357.79 523.45 348.77 514.78 339.85 506.03 331.04 497 322.54 488.01 314.29 479.45 306.5 471.07 299.43 463 292.82 455.46 287.12 448.11 282.56 440.93 278.66 434.13 276.02 427.3 274.78 420.37 274.15 413.61 274.83 406.59 276.78 399.25 278.96 391.96 282.05 384.27 285.88 376.21 289.28 368.16 292.85 360.13 296.39 352.25 299.1 344.43 301.73 336.86 304.27 329.7 306.96 319.48 312.61 302.85 316.29 297.01 320.39 292.72 332.38 289.78 340.31 290.85 345.89 291.73 352.17 293.2 359.07 295.11 365.97 296.39 373.45 297.76 381.43 299.11" stroke-dasharray="2 2" transform="rotate(60.599999999999994, 400, 400)" opacity="0.62"></path><path d="M386.61 310.51C393.97 310.87 401.58 311.16 409.39 311.41 417.26 310.94 425.39 310.63 433.73 310.58 442.18 310.12 450.89 310.16 459.75 310.79 468.71 311.33 477.75 312.62 486.66 314.71 495.44 316.88 503.82 319.9 511.48 323.7 518.55 327.64 524.47 332.34 528.89 337.7 532.22 343.14 533.72 349.18 533.19 355.69 531.45 362.24 527.76 369.21 522.23 376.54 516.06 383.87 508.95 391.21 501.4 398.51 494.19 405.86 487.06 413.25 480.31 420.66 474.43 428.22 469.03 435.9 464.12 443.7 460.07 451.74 456.29 459.97 452.63 468.29 449.52 476.84 446.22 485.42 442.58 493.86 439.17 502.27 435.19 510.28 430.59 517.57 426.02 524.38 420.72 530.09 414.69 534.34 408.64 537.61 401.85 539.11 394.35 538.62 386.86 536.93 379.06 533.4 371.1 528.32 363.18 522.5 355.17 515.56 347.22 507.88 339.39 500.03 331.73 491.8 324.42 483.46 317.36 475.35 310.8 467.31 304.95 459.45 299.51 451.95 294.93 444.61 291.39 437.42 288.38 430.54 286.49 423.68 285.8 416.83 285.59 410.14 286.49 403.32 288.48 396.36 290.6 389.44 293.53 382.31 297.14 375 300.36 367.69 303.79 360.55 307.25 353.68 310.01 346.85 312.75 340.35 315.44 334.33 318.5 325.77 324.66 312.26 328.31 307.71 332.14 304.39 342.81 302.4 349.78 303.44 354.64 304.2 360.18 305.44 366.34 307.07 372.49 308.13 379.26 309.3 386.61 310.51" stroke-dasharray="3 6" transform="rotate(64.64, 400, 400)" opacity="0.66"></path><path d="M393.27 321.92C399.99 322.28 407.02 322.66 414.28 323.04 421.58 322.81 429.13 322.75 436.86 322.91 444.65 322.68 452.62 322.87 460.62 323.53 468.63 324.04 476.59 325.17 484.28 326.95 491.77 328.73 498.77 331.22 505 334.4 513 339.6 521.43 353.29 521.02 361.57 519.26 367.28 515.88 373.47 510.97 380.1 505.56 386.73 499.3 393.5 492.58 400.34 486.06 407.21 479.49 414.21 473.09 421.29 467.32 428.48 461.84 435.82 456.7 443.25 452.23 450.83 447.98 458.53 443.88 466.24 440.25 474.05 436.54 481.8 432.65 489.29 429 496.68 424.98 503.61 420.52 509.83 416.13 515.59 411.21 520.35 405.72 523.84 400.24 526.52 394.17 527.71 387.54 527.22 380.91 525.77 374.05 522.76 367.11 518.44 360.22 513.47 353.29 507.5 346.49 500.81 339.8 493.9 333.33 486.56 327.25 479 321.39 471.55 316.04 464.04 311.36 456.61 307.02 449.41 303.47 442.29 300.84 435.31 298.62 428.55 297.37 421.84 297.14 415.21 297.25 408.7 298.3 402.17 300.26 395.63 302.31 389.13 305.05 382.56 308.39 375.98 311.42 369.39 314.67 363.09 318 357.14 322.17 348.46 329.73 333.57 333.31 327.68 340.2 319.62 353.8 315.15 360.07 316.06 366.88 317.16 383.48 320.35 393.27 321.92" stroke-dasharray="4 10" transform="rotate(68.68, 400, 400)" opacity="0.70"></path><path d="M400.66 333.33C412.83 333.47 426.2 334.02 440.02 335.11 453.88 334.84 467.96 336.18 480.95 339.44 493 342.49 502.54 347.97 507.83 355.72 510.42 363.54 507.78 373.53 499.72 385.41 490.09 397.3 478.21 410.05 466.07 423.15 455.58 436.5 445.7 450.45 436.59 464.24 429 478.06 421.03 491.08 412.24 501.77 403.78 510.85 393.72 516 382.09 515.81 370.46 512.65 358.47 504.65 347.06 493.53 336.05 481.5 326.27 467.96 318.77 454.25 312.36 441.04 308.83 427.89 308.77 415.29 309.62 403.03 313.36 390.83 319.65 379.06 324.91 367.29 330.9 357 336.98 348.64 341.25 340.45 346.07 334.5 351.65 331.16 356.29 328 362.55 327.23 370.63 328.66 378.48 329.23 388.49 330.9 400.66 333.33" stroke-dasharray="0 9" transform="rotate(72.72, 400, 400)" opacity="0.73"></path><path d="M407.99 344.73C418.82 344.99 430.56 345.79 442.49 347.16 454.35 347.37 466.05 348.91 476.45 351.98 485.95 354.73 493.1 359.48 496.64 366.17 498.16 372.84 495.49 381.49 488.47 392 480.26 402.5 469.99 413.94 459.19 425.75 449.4 437.68 439.79 450.03 430.7 462.02 422.72 473.83 414.57 484.7 406.07 493.37 397.88 500.7 388.71 504.74 378.62 504.41 368.53 501.83 358.53 495.26 349.32 486.01 340.42 475.88 332.8 464.21 327.27 452.13 322.49 440.23 320.17 428.23 320.7 416.72 321.77 405.42 325.25 394.36 330.9 383.98 335.74 373.61 341.4 364.83 347.29 357.92 351.8 351.08 356.84 346.23 362.49 343.58 367.31 340.91 373.39 340.16 380.88 341.21 388.12 341.45 397.15 342.69 407.99 344.73" stroke-dasharray="8 10" transform="rotate(76.76, 400, 400)" opacity="0.77"></path><path d="M414.43 356.14C423.86 356.48 433.82 357.45 443.68 359.01 453.42 359.65 462.71 361.39 470.64 364.35 477.82 366.96 482.91 371.17 485.04 376.99 485.76 382.73 483.2 390.18 477.21 399.29 470.38 408.39 461.71 418.35 452.38 428.59 443.6 438.86 434.68 449.36 426.05 459.35 418.16 469.08 410.18 477.83 402.16 484.62 394.39 490.36 386.12 493.42 377.5 493 368.87 490.96 360.71 485.7 353.5 478.21 346.48 469.96 340.75 460.25 336.84 449.99 333.4 439.72 332 429.21 332.89 419.07 334.05 409.04 337.18 399.29 342.16 390.31 346.51 381.33 351.71 373.9 357.27 368.18 361.82 362.45 366.91 358.43 372.49 356.21 377.41 353.85 383.29 353.03 390.22 353.67 396.92 353.61 405 354.46 414.43 356.14" stroke-dasharray="1 1" transform="rotate(80.80000000000001, 400, 400)" opacity="0.81"></path><path d="M419.28 367.54C427.22 367.93 435.33 368.99 443.09 370.65 454.22 372.56 470.3 380.77 473.08 387.69 473.25 392.64 470.91 398.97 465.96 406.64 460.43 414.31 453.35 422.63 445.57 431.11 438.06 439.57 430.19 448.08 422.43 456.02 415.1 463.68 407.7 470.42 400.43 475.51 393.33 479.83 386.06 482.05 378.85 481.6 371.64 480.03 365.14 475.96 359.65 470.11 354.27 463.66 350.09 455.91 347.44 447.58 345.05 439.14 344.29 430.36 345.32 421.82 346.45 413.32 349.17 405.05 353.41 397.49 357.21 389.92 361.84 383.73 366.89 378.98 373.72 372.5 389.11 366.23 398.16 366.01 404.27 365.7 411.34 366.21 419.28 367.54" stroke-dasharray="5 10" transform="rotate(84.84, 400, 400)" opacity="0.85"></path><path d="M422.01 378.95C434.8 379.1 446.85 382.2 454.88 387.76 461.49 392.38 462.06 401.01 454.7 413.41 445.91 425.8 432.83 439.8 419.57 451.84 407.15 463 394.18 470.37 382.54 470.19 370.89 467.21 362.52 457.31 358.94 444.67 355.75 431.52 357.54 417.12 364.67 404.88 370.63 392.64 379.51 384.66 389.36 381.24 398.06 377.13 409.22 376.34 422.01 378.95" stroke-dasharray="6 3" transform="rotate(88.88, 400, 400)" opacity="0.89"></path><path d="M422.32 390.35C431.91 390.71 440.13 393.63 445.03 398.43 449.18 402.63 449.03 409.63 443.45 419 437.08 428.37 427.35 438.42 417.18 446.67 407.31 454.35 396.99 459.18 388.14 458.79 379.28 456.83 373.39 450.01 371.16 441.07 369 431.71 370.48 421.12 375.92 411.85 380.68 402.57 387.96 396.26 396.07 393.2 403.59 389.66 412.72 388.58 422.32 390.35" stroke-dasharray="2 1" transform="rotate(92.92, 400, 400)" opacity="0.92"></path><path d="M420.17 401.76C432.9 401.92 439.21 410.35 432.19 422.92 423.82 435.49 407.06 447.55 395.05 447.38 383.04 444.49 379.63 430.25 387.17 417.78 393.49 405.29 407.42 399.05 420.17 401.76" stroke-dasharray="8 6" transform="rotate(96.96, 400, 400)" opacity="0.96"></path></g></svg>